<svg width="24" height="24" viewBox="0 0 24 24" fill="none" xmlns="http://www.w3.org/2000/svg">
<path d="M9.04004 5.39974C9.33294 5.10704 9.80775 5.10693 10.1006 5.39974C10.3933 5.69259 10.3932 6.16743 10.1006 6.46028L5.30957 11.2503H20.5C20.9142 11.2503 21.25 11.5861 21.25 12.0003C21.2498 12.4143 20.9141 12.7502 20.5 12.7502H5.31152L10.1006 17.5393C10.3934 17.832 10.3931 18.3069 10.1006 18.5998C9.80769 18.8927 9.33293 18.8927 9.04004 18.5998L2.96973 12.5305C2.82916 12.3899 2.75008 12.199 2.75 12.0003C2.75001 11.8014 2.82918 11.6106 2.96973 11.47L9.04004 5.39974Z" fill="white"/>
</svg>
