<svg width="24" height="24" viewBox="0 0 24 24" fill="none" xmlns="http://www.w3.org/2000/svg">
<path d="M15 1.25C17.574 1.25 19.5708 1.76026 20.9053 3.09473C22.2397 4.4292 22.75 6.42603 22.75 9V15C22.75 17.574 22.2397 19.5708 20.9053 20.9053C19.5708 22.2397 17.574 22.75 15 22.75H9C6.42603 22.75 4.4292 22.2397 3.09473 20.9053C1.76026 19.5708 1.25 17.574 1.25 15V9C1.25 6.42603 1.76026 4.4292 3.09473 3.09473C4.4292 1.76026 6.42603 1.25 9 1.25H15ZM9 2.75C6.57397 2.75 5.0708 3.23974 4.15527 4.15527C3.23974 5.0708 2.75 6.57397 2.75 9V15C2.75 17.426 3.23974 18.9292 4.15527 19.8447C5.0708 20.7603 6.57397 21.25 9 21.25H15C17.426 21.25 18.9292 20.7603 19.8447 19.8447C20.7603 18.9292 21.25 17.426 21.25 15V9C21.25 6.57397 20.7603 5.0708 19.8447 4.15527C18.9292 3.23974 17.426 2.75 15 2.75H9ZM14.7324 5.92188C16.7767 5.3004 18.7181 7.21613 18.0664 9.27148L15.7275 16.8125L15.7266 16.8135C14.9519 19.2895 11.461 19.3464 10.6387 16.8662V16.8652L9.94043 14.7998L9.93945 14.7969C9.82148 14.4431 9.54408 14.1694 9.21484 14.0654L9.20215 14.0605L7.12402 13.3604V13.3613C4.66661 12.5422 4.699 9.03045 7.1875 8.27344L14.7275 5.92383L14.7324 5.92188ZM16.6367 8.82129C16.9185 7.93932 16.0823 7.07982 15.1689 7.35742L15.168 7.35645L7.63379 9.70605L7.62793 9.70801C6.54321 10.0352 6.51764 11.5781 7.59766 11.9385H7.60059L9.67969 12.6387H9.67871C10.4824 12.8969 11.0999 13.5386 11.3613 14.3193L12.0615 16.3896L12.0625 16.3936C12.4203 17.4729 13.9493 17.4697 14.2949 16.3662L16.6348 8.82715L16.6367 8.82129Z" fill="white"/>
</svg>
