<svg width="44" height="44" viewBox="0 0 44 44" fill="none" xmlns="http://www.w3.org/2000/svg">
<rect x="25.0527" y="12.0732" width="5.34526" height="6.10887" fill="#E93C3F" fill-opacity="0.16"/>
<path d="M10.8008 26.1999C11.5738 26.1999 12.1998 26.8273 12.1998 27.6003V28.9993C12.1998 30.3587 12.2035 31.2381 12.29 31.8852C12.3714 32.4928 12.5044 32.6834 12.6107 32.7897L12.7114 32.8725C12.8387 32.9591 13.0596 33.0487 13.5137 33.1104C14.1621 33.197 15.0414 33.1991 16.3996 33.1991H17.8001L17.9433 33.2073C18.6493 33.2782 19.2005 33.8752 19.2005 34.5995C19.2005 35.324 18.6493 35.9209 17.9433 35.9918L17.8001 36H16.3996C15.12 36 14.0189 36.0025 13.1409 35.8844C12.3377 35.7768 11.5648 35.5499 10.906 35.0171L10.6316 34.7688C9.91761 34.0562 9.63934 33.1769 9.51598 32.2595C9.39786 31.3815 9.40039 30.2803 9.40039 28.9993V27.6003C9.40039 26.8273 10.0278 26.1999 10.8008 26.1999ZM33.3422 26.2073C34.0481 26.2791 34.5995 26.8756 34.5995 27.6003V28.9993C34.5995 30.2802 34.6022 31.3814 34.4854 32.2595C34.3607 33.1769 34.0824 34.0562 33.3698 34.7688L33.0939 35.0171C32.4351 35.5499 31.6621 35.7768 30.859 35.8844C29.981 36.0025 28.8798 36 27.6002 36H26.1998L26.0566 35.9918C25.3506 35.9209 24.7993 35.324 24.7993 34.5995C24.7994 33.8751 25.3506 33.2782 26.0566 33.2073L26.1998 33.1991H27.6002C28.9598 33.1991 29.8378 33.197 30.4862 33.1104C30.9403 33.0487 31.1612 32.9591 31.2885 32.8725L31.3892 32.7897C31.4955 32.6834 31.6285 32.4928 31.7099 31.8852C31.7964 31.2382 31.8001 30.3587 31.8001 28.9993V27.6003C31.8001 26.8273 32.426 26.1999 33.1991 26.1999L33.3422 26.2073ZM27.5995 8.34676C28.4014 8.34676 28.8362 8.90412 28.9806 9.10888C29.0554 9.2165 29.1264 9.339 29.1894 9.45713L29.3519 9.77554L30.5093 12.0895L32.8232 13.2476C32.999 13.3355 33.276 13.4702 33.4899 13.6197C33.6828 13.7536 34.1843 14.1451 34.246 14.8538L34.2527 15.0007L34.246 15.1462C34.1844 15.8547 33.6829 16.2458 33.4899 16.3811C33.2759 16.5294 32.9991 16.6652 32.8232 16.7532L30.5093 17.909L29.3519 20.2245C29.264 20.4003 29.1288 20.6772 28.9806 20.8911C28.8362 21.0972 28.4014 21.6532 27.5995 21.6532L27.4526 21.6473C26.7441 21.5856 26.3532 21.0842 26.2192 20.8911C26.0696 20.6773 25.9342 20.4003 25.8463 20.2245L24.6897 17.909L22.3758 16.7532C22.1986 16.6652 21.9222 16.5293 21.7084 16.3811C21.5154 16.2459 21.0139 15.8549 20.9522 15.1462L20.9455 15.0007C20.9455 14.1988 21.5036 13.7627 21.7084 13.6197C21.9221 13.4703 22.1987 13.3354 22.3758 13.2476L24.6897 12.0895L25.8463 9.77554C25.9343 9.59966 26.0697 9.32268 26.2192 9.10888C26.3532 8.91575 26.7443 8.41515 27.4526 8.35347L27.5995 8.34676ZM17.9433 8.00821C18.6493 8.07908 19.2005 8.67605 19.2005 9.40045C19.2005 10.1249 18.6494 10.7226 17.9433 10.7934L17.8001 10.8009H16.3996C15.0414 10.8009 14.1621 10.8038 13.5137 10.8904C13.0601 10.952 12.8395 11.041 12.7121 11.1275L12.6107 11.2103C12.5044 11.3166 12.3722 11.5072 12.2908 12.1148C12.2042 12.7618 12.1998 13.6411 12.1998 15.0007V16.3997C12.1998 17.1727 11.5739 17.8001 10.8008 17.8001C10.0278 17.8001 9.40039 17.1728 9.40039 16.3997V15.0007C9.40039 13.7199 9.39786 12.6186 9.51598 11.7405C9.63936 10.8231 9.91764 9.94378 10.6316 9.23117L10.906 8.98285C11.5648 8.45017 12.3378 8.22317 13.1409 8.11559C14.0189 7.99747 15.1201 8 16.3996 8H17.8001L17.9433 8.00821ZM27.0693 13.5921C27.0693 13.5921 26.9418 13.8837 26.7121 14.1134L26.5339 14.2647C26.3587 14.3948 26.1974 14.4679 26.1916 14.4705L25.1312 15.0007L26.1916 15.5309C26.1976 15.5336 26.3587 15.6059 26.5339 15.736L26.7121 15.8881C26.9369 16.1143 27.0642 16.3975 27.0693 16.4087L27.5995 17.4683L28.1297 16.4087C28.1327 16.4018 28.205 16.2396 28.3348 16.0649L28.4869 15.8881L28.6644 15.736C28.7247 15.6914 28.7823 15.6543 28.8322 15.6242L29.0081 15.5309L30.0686 15.0007L29.0081 14.4705L28.8322 14.3773C28.7311 14.317 28.6011 14.2275 28.4869 14.1134L28.3348 13.9351C28.2022 13.7566 28.1297 13.5921 28.1297 13.5921L27.5995 12.531L27.0693 13.5921Z" fill="#E93C3F"/>
</svg>
